<svg width="5036" height="2725" version="1.1" xmlns="http://www.w3.org/2000/svg" desc="Created with imagetracer.js version 1.2.6" ><path fill="rgb(232,232,232)" stroke="rgb(232,232,232)" stroke-width="1" opacity="1" d="M 736 753 L 1023.5 753 L 1024 753.5 L 1024 789.5 L 1022.5 791 L 982 791 L 982 919 L 1107 919 L 1107 873 L 1139.5 873 L 1141 874.5 L 1141 1253 L 736 1253 L 736 753 Z M 770 791 L 770 1219 L 1107 1219 L 1107 955 L 1106 953 L 948 953 L 948 791 L 770 791 Z " /><path fill="rgb(232,232,232)" stroke="rgb(232,232,232)" stroke-width="1" opacity="1" d="M 1026 792 L 1062.5 792 L 1064 793.5 L 1064 830 L 1026 830 L 1026 792 Z " /><path fill="rgb(232,232,232)" stroke="rgb(232,232,232)" stroke-width="1" opacity="1" d="M 1067 834 L 1105 834 L 1105 872 L 1067 872 L 1067 834 Z " /><path fill="rgb(232,232,232)" stroke="rgb(232,232,232)" stroke-width="1" opacity="1" d="M 836 873 L 878 873 L 878 953 L 836 953 L 836 873 Z " /><path fill="rgb(232,232,232)" stroke="rgb(232,232,232)" stroke-width="1" opacity="1" d="M 878 1073 L 1002.5 1073 L 1003 1073.5 L 1003 1115 L 1043.5 1115 L 1045 1116.5 L 1045 1157 L 1003 1157 L 1003 1117.5 L 1001.5 1116 L 878 1116 L 878 1157 L 836 1157 L 836 1115 L 878 1115 L 878 1073 Z " /><path fill="rgb(232,232,232)" stroke="rgb(232,232,232)" stroke-width="1" opacity="1" d="M 937.5 1659 L 944.5 1659 L 952 1665.5 Q 953.6 1676.6 946.5 1679 L 937.5 1680 L 931 1675.5 Q 928.3 1673.2 929 1667.5 L 933.5 1661 L 937.5 1659 Z " /><path fill="rgb(232,232,232)" stroke="rgb(232,232,232)" stroke-width="1" opacity="1" d="M 1858.5 1659 Q 1868.9 1657.6 1872 1663.5 Q 1874.7 1665.8 1874 1671.5 L 1869.5 1678 Q 1866.2 1681.2 1858.5 1680 L 1851 1673.5 L 1851 1665.5 L 1856.5 1660 L 1858.5 1659 Z " /><path fill="rgb(232,232,232)" stroke="rgb(232,232,232)" stroke-width="1" opacity="1" d="M 2555.5 1659 Q 2565.9 1657.6 2569 1663.5 Q 2571.7 1665.8 2571 1671.5 L 2566.5 1678 Q 2563.2 1681.2 2555.5 1680 L 2548 1673.5 L 2548 1665.5 L 2553.5 1660 L 2555.5 1659 Z " /><path fill="rgb(232,232,232)" stroke="rgb(232,232,232)" stroke-width="1" opacity="1" d="M 734 1664 L 822.5 1664 L 823 1664.5 L 823 1681 L 789 1681 L 789 1773.5 L 787.5 1775 L 768 1775 L 768 1681.5 L 767.5 1681 L 734 1681 L 734 1664 Z " /><path fill="rgb(232,232,232)" stroke="rgb(232,232,232)" stroke-width="1" opacity="1" d="M 837 1664 L 855.5 1664 L 857 1665.5 L 857.5 1705 L 867.5 1694 Q 875.1 1689.1 889.5 1691 Q 901.4 1693.6 907 1702.5 L 911 1711.5 Q 909.5 1717 912 1718.5 L 912 1773.5 L 910.5 1775 L 892 1775 L 892 1721.5 Q 890.5 1713 884.5 1709 L 877.5 1707 L 872.5 1707 Q 864 1708.5 860 1714.5 L 857 1722.5 L 857 1775 L 837.5 1775 L 837 1774.5 L 837 1664 Z " /><path fill="rgb(232,232,232)" stroke="rgb(232,232,232)" stroke-width="1" opacity="1" d="M 1305 1664 L 1324.5 1664 L 1325 1664.5 L 1325 1775 L 1305.5 1775 L 1305 1774.5 L 1305 1664 Z " /><path fill="rgb(232,232,232)" stroke="rgb(232,232,232)" stroke-width="1" opacity="1" d="M 1345 1664 L 1363.5 1664 L 1365 1665.5 L 1365 1773.5 L 1363.5 1775 L 1345.5 1775 L 1345 1774.5 L 1345 1664 Z " /><path fill="rgb(232,232,232)" stroke="rgb(232,232,232)" stroke-width="1" opacity="1" d="M 2589 1664 L 2607.5 1664 L 2609 1665.5 L 2609 1773.5 L 2607.5 1775 L 2589.5 1775 L 2589 1774.5 L 2589 1664 Z " /><path fill="rgb(232,232,232)" stroke="rgb(232,232,232)" stroke-width="1" opacity="1" d="M 2717 1664 L 2737 1664 L 2737 1704.5 L 2740 1702.5 L 2746.5 1695 Q 2753.2 1688.7 2768.5 1691 Q 2782.6 1693.9 2789 1704.5 L 2795 1717.5 L 2797 1736.5 L 2796 1737.5 L 2795 1749.5 L 2792 1757.5 L 2780.5 1771 L 2768.5 1776 L 2754.5 1776 Q 2744.5 1772.5 2739 1764.5 L 2737.5 1762 L 2737 1773.5 L 2735.5 1775 L 2717.5 1775 L 2717 1774.5 L 2717 1664 Z M 2752 1707 L 2746 1710 Q 2739 1715 2737 1725 Q 2735 1744 2742 1754 L 2752 1760 Q 2762 1761 2768 1757 Q 2774 1752 2776 1742 Q 2778 1723 2771 1714 Q 2767 1705 2752 1707 Z " /><path fill="rgb(232,232,232)" stroke="rgb(232,232,232)" stroke-width="1" opacity="1" d="M 2813 1664 L 2831.5 1664 L 2833 1665.5 L 2833 1773.5 L 2831.5 1775 L 2813.5 1775 L 2813 1774.5 L 2813 1664 Z " /><path fill="rgb(232,232,232)" stroke="rgb(232,232,232)" stroke-width="1" opacity="1" d="M 2202 1672 L 2222 1672 L 2222 1690.5 L 2223.5 1692 L 2239 1692 L 2239 1705.5 L 2237.5 1707 L 2222 1707 L 2222 1752.5 L 2226.5 1759 L 2236.5 1759 L 2237 1760.5 L 2240 1774 Q 2234 1777.2 2222.5 1776 Q 2210.5 1774 2205 1765.5 L 2203 1761.5 Q 2204.8 1755.2 2202 1753.5 L 2202 1707 L 2191 1707 L 2191 1692 L 2202 1692 L 2202 1672 Z " /><path fill="rgb(232,232,232)" stroke="rgb(232,232,232)" stroke-width="1" opacity="1" d="M 993.5 1691 Q 1020.3 1688.2 1031 1701.5 L 1036 1710.5 L 1036 1714 L 1020.5 1715 L 1018 1716 L 1015 1709 Q 1010 1705.2 1000.5 1705 L 990 1709 L 988 1716.5 L 992.5 1722 L 1000.5 1725 L 1021.5 1729 Q 1030.2 1731.8 1035 1738.5 Q 1039.3 1743.7 1038 1754.5 Q 1035.9 1764.4 1028.5 1769 Q 1021.9 1774.4 1011.5 1776 L 991.5 1776 Q 978.3 1773.2 971 1764.5 Q 966.5 1759.6 966 1752 L 984.5 1750 L 989.5 1758 Q 994.8 1762.2 1004.5 1762 L 1013.5 1759 L 1017 1755.5 L 1018 1750.5 L 1014.5 1745 L 1006.5 1742 L 985.5 1738 Q 976.2 1734.8 971 1727.5 L 969 1723.5 L 969 1709.5 Q 971.4 1700.9 978.5 1697 L 985.5 1693 L 993.5 1691 Z " /><path fill="rgb(232,232,232)" stroke="rgb(232,232,232)" stroke-width="1" opacity="1" d="M 1242.5 1691 Q 1271.4 1688.1 1282 1703.5 L 1286 1713.5 L 1286 1773.5 L 1284.5 1775 L 1267 1775 L 1267 1765.5 L 1265.5 1765 L 1261.5 1770 Q 1253.2 1778.7 1233.5 1776 Q 1222.4 1773.6 1217 1765.5 L 1214 1759.5 L 1213 1750.5 Q 1215.5 1749 1214 1743.5 L 1219.5 1735 L 1232.5 1728 L 1258.5 1725 L 1265 1723 Q 1266.6 1720.9 1266 1715.5 L 1261.5 1708 Q 1256.1 1704.4 1245.5 1706 L 1237 1711.5 L 1235 1716 L 1216 1714 Q 1217.9 1703.4 1226.5 1698 Q 1232.9 1692.9 1242.5 1691 Z M 1265 1736 L 1260 1738 L 1243 1740 L 1237 1743 Q 1231 1746 1233 1756 Q 1236 1760 1243 1762 Q 1253 1763 1259 1759 Q 1264 1756 1266 1749 L 1266 1737 L 1265 1736 Z " /><path fill="rgb(232,232,232)" stroke="rgb(232,232,232)" stroke-width="1" opacity="1" d="M 1421.5 1691 Q 1432.4 1689.6 1439.5 1692 L 1453 1700.5 L 1462 1716.5 L 1463 1727.5 L 1464 1728.5 L 1464 1738.5 L 1460 1755.5 L 1451.5 1768 Q 1442.5 1778 1421.5 1776 Q 1412.2 1772.8 1407 1765.5 L 1404.5 1762 L 1404 1806 L 1384.5 1806 L 1384 1805.5 L 1384 1692 L 1404 1692 L 1404 1705.5 L 1405 1705.5 L 1413.5 1695 L 1421.5 1691 Z M 1419 1707 L 1413 1710 Q 1406 1715 1404 1726 L 1404 1741 L 1409 1754 L 1419 1760 Q 1429 1761 1435 1757 L 1440 1751 L 1443 1743 Q 1441 1736 1444 1735 L 1442 1722 L 1439 1715 Q 1434 1705 1419 1707 Z " /><path fill="rgb(232,232,232)" stroke="rgb(232,232,232)" stroke-width="1" opacity="1" d="M 1504.5 1691 Q 1531.3 1688.2 1542 1701.5 L 1547 1711.5 L 1547 1775 L 1528 1775 L 1528 1764.5 L 1526 1765.5 L 1520.5 1772 L 1511.5 1776 L 1494.5 1776 Q 1485.6 1773.4 1480 1767.5 Q 1473 1761 1475 1745.5 Q 1477.2 1737.2 1483.5 1733 L 1494.5 1728 L 1504.5 1726 L 1520.5 1725 L 1527 1721.5 L 1528 1717.5 Q 1526.9 1710.1 1521.5 1707 Q 1516.4 1704.6 1507.5 1706 Q 1501 1707.5 1498 1712.5 L 1495.5 1716 L 1478 1714 L 1479 1708.5 L 1485.5 1700 L 1496.5 1693 L 1504.5 1691 Z M 1526 1736 L 1521 1738 L 1509 1739 L 1500 1742 L 1494 1749 L 1495 1757 Q 1498 1761 1504 1762 Q 1515 1763 1521 1759 Q 1526 1755 1528 1747 L 1528 1737 L 1526 1736 Z " /><path fill="rgb(232,232,232)" stroke="rgb(232,232,232)" stroke-width="1" opacity="1" d="M 1604.5 1691 Q 1615.4 1689.6 1622.5 1692 Q 1631.5 1695.5 1637 1702.5 Q 1648.7 1715.3 1646 1742.5 L 1644 1751.5 L 1640 1760.5 L 1631.5 1770 L 1618.5 1776 L 1604.5 1776 Q 1596 1773.5 1591 1767.5 L 1587.5 1762 L 1587 1804.5 L 1585.5 1806 L 1567.5 1806 L 1567 1805.5 L 1567 1692 L 1586 1692 L 1586 1704.5 L 1587.5 1705 L 1594.5 1696 L 1604.5 1691 Z M 1602 1707 L 1597 1709 L 1590 1716 L 1587 1723 Q 1589 1728 1586 1730 L 1587 1744 L 1591 1753 Q 1594 1758 1602 1760 Q 1611 1761 1616 1758 L 1623 1750 L 1626 1740 L 1626 1728 Q 1625 1718 1620 1713 Q 1615 1705 1602 1707 Z " /><path fill="rgb(232,232,232)" stroke="rgb(232,232,232)" stroke-width="1" opacity="1" d="M 1690.5 1691 Q 1718.7 1688.8 1729 1704.5 L 1736 1719.5 L 1737 1737.5 L 1735.5 1739 L 1678 1739.5 L 1682 1752.5 L 1687.5 1758 Q 1693 1762.5 1704.5 1761 Q 1711.3 1759.8 1715 1755.5 L 1717.5 1751 L 1736 1752 Q 1734 1763.3 1725.5 1769 Q 1719.1 1774.1 1709.5 1776 L 1689.5 1776 Q 1675.7 1772.8 1668 1763.5 Q 1656.1 1751.4 1659 1724.5 Q 1662 1706.5 1674.5 1698 L 1685.5 1692 L 1690.5 1691 Z M 1695 1706 L 1688 1709 Q 1682 1713 1679 1721 Q 1678 1725 1680 1725 L 1718 1725 Q 1718 1717 1713 1712 Q 1709 1707 1703 1706 L 1695 1706 Z " /><path fill="rgb(232,232,232)" stroke="rgb(232,232,232)" stroke-width="1" opacity="1" d="M 1787.5 1691 L 1799.5 1691 L 1801 1692.5 L 1801 1708.5 L 1797.5 1709 L 1796.5 1708 L 1787.5 1708 Q 1779.2 1710.2 1775 1716.5 L 1773 1720.5 L 1773 1773.5 L 1771.5 1775 L 1753.5 1775 L 1753 1774.5 L 1753 1692 L 1772 1692 L 1772 1704.5 L 1774 1703.5 Q 1775.6 1696.6 1781.5 1694 L 1787.5 1691 Z " /><path fill="rgb(232,232,232)" stroke="rgb(232,232,232)" stroke-width="1" opacity="1" d="M 1914.5 1691 Q 1941.3 1688.2 1952 1701.5 L 1957 1710.5 L 1957 1714 L 1941.5 1715 L 1939 1716 L 1936 1709 Q 1931 1705.2 1921.5 1705 L 1911 1709 L 1909 1716.5 L 1913.5 1722 L 1921.5 1725 L 1942.5 1729 Q 1951.2 1731.8 1956 1738.5 Q 1960.3 1743.7 1959 1754.5 Q 1956.9 1764.4 1949.5 1769 Q 1942.9 1774.4 1932.5 1776 L 1912.5 1776 Q 1899.3 1773.2 1892 1764.5 Q 1887.5 1759.6 1887 1752 L 1905.5 1750 L 1910.5 1758 Q 1915.8 1762.2 1925.5 1762 L 1934.5 1759 L 1938 1755.5 L 1939 1750.5 L 1935.5 1745 L 1927.5 1742 L 1906.5 1738 Q 1897.2 1734.8 1892 1727.5 L 1890 1723.5 L 1890 1709.5 Q 1892.4 1700.9 1899.5 1697 L 1906.5 1693 L 1914.5 1691 Z " /><path fill="rgb(232,232,232)" stroke="rgb(232,232,232)" stroke-width="1" opacity="1" d="M 2050.5 1691 L 2065.5 1691 Q 2075.6 1693.4 2081 1700.5 L 2087 1714.5 L 2087 1775 L 2067 1775 L 2067 1719.5 L 2063 1711 L 2053.5 1707 L 2048.5 1707 Q 2040 1708.5 2036 1714.5 L 2033 1722.5 L 2033 1775 L 2013.5 1775 L 2013 1774.5 L 2013 1692 L 2032 1692 L 2032 1704.5 L 2034 1705 Q 2035.5 1699.4 2040.5 1696 L 2050.5 1691 Z " /><path fill="rgb(232,232,232)" stroke="rgb(232,232,232)" stroke-width="1" opacity="1" d="M 2133.5 1691 L 2150.5 1691 L 2155.5 1692 Q 2167.3 1695.7 2174 1704.5 Q 2179.7 1711.3 2182 1721.5 L 2183 1738.5 Q 2180.5 1740 2182 1745.5 L 2177 1758.5 L 2167.5 1769 Q 2156.7 1778.7 2133.5 1776 Q 2118.8 1772.8 2111 1762.5 L 2104 1749.5 L 2102 1738.5 L 2102 1728.5 L 2106 1712.5 L 2116.5 1699 Q 2123.1 1693.1 2133.5 1691 Z M 2140 1706 L 2134 1708 L 2127 1715 L 2123 1724 Q 2125 1729 2122 1731 L 2123 1744 L 2127 1753 Q 2131 1759 2140 1761 Q 2149 1761 2155 1757 L 2161 1747 L 2163 1738 Q 2164 1720 2156 1712 Q 2152 1707 2146 1706 L 2140 1706 Z " /><path fill="rgb(232,232,232)" stroke="rgb(232,232,232)" stroke-width="1" opacity="1" d="M 2318.5 1691 Q 2347.4 1688.1 2358 1703.5 L 2362 1713.5 L 2362 1773.5 L 2360.5 1775 L 2343 1775 L 2343 1765.5 L 2341.5 1765 L 2337.5 1770 Q 2329.2 1778.7 2309.5 1776 Q 2298.4 1773.6 2293 1765.5 L 2290 1759.5 L 2289 1750.5 Q 2291.5 1749 2290 1743.5 L 2295.5 1735 L 2308.5 1728 L 2334.5 1725 L 2341 1723 Q 2342.6 1720.9 2342 1715.5 L 2337.5 1708 Q 2332.1 1704.4 2321.5 1706 L 2313 1711.5 L 2311 1716 L 2292 1714 Q 2293.9 1703.4 2302.5 1698 Q 2308.9 1692.9 2318.5 1691 Z M 2341 1736 L 2336 1738 L 2319 1740 L 2313 1743 Q 2307 1746 2309 1756 Q 2312 1760 2319 1762 Q 2329 1763 2335 1759 Q 2340 1756 2342 1749 L 2342 1737 L 2341 1736 Z " /><path fill="rgb(232,232,232)" stroke="rgb(232,232,232)" stroke-width="1" opacity="1" d="M 2486.5 1691 Q 2515.4 1688.1 2526 1703.5 L 2530 1713.5 L 2530 1773.5 L 2528.5 1775 L 2511 1775 L 2511 1765.5 L 2509.5 1765 L 2505.5 1770 Q 2497.2 1778.7 2477.5 1776 Q 2466.4 1773.6 2461 1765.5 L 2458 1759.5 L 2457 1750.5 Q 2459.5 1749 2458 1743.5 L 2463.5 1735 L 2476.5 1728 L 2502.5 1725 L 2509 1723 Q 2510.6 1720.9 2510 1715.5 L 2505.5 1708 Q 2500.1 1704.4 2489.5 1706 L 2481 1711.5 L 2479 1716 L 2460 1714 Q 2461.9 1703.4 2470.5 1698 Q 2476.9 1692.9 2486.5 1691 Z M 2509 1736 L 2504 1738 L 2487 1740 L 2481 1743 Q 2475 1746 2477 1756 Q 2480 1760 2487 1762 Q 2497 1763 2503 1759 Q 2508 1756 2510 1749 L 2510 1737 L 2509 1736 Z " /><path fill="rgb(232,232,232)" stroke="rgb(232,232,232)" stroke-width="1" opacity="1" d="M 2653.5 1691 Q 2682.4 1688.1 2693 1703.5 L 2697 1713.5 L 2697 1773.5 L 2695.5 1775 L 2678 1775 L 2678 1765.5 L 2676.5 1765 L 2672.5 1770 Q 2664.2 1778.7 2644.5 1776 Q 2633.4 1773.6 2628 1765.5 L 2625 1759.5 L 2624 1750.5 Q 2626.5 1749 2625 1743.5 L 2630.5 1735 L 2643.5 1728 L 2669.5 1725 L 2676 1723 Q 2677.6 1720.9 2677 1715.5 L 2672.5 1708 Q 2667.1 1704.4 2656.5 1706 L 2648 1711.5 L 2646 1716 L 2627 1714 Q 2628.9 1703.4 2637.5 1698 Q 2643.9 1692.9 2653.5 1691 Z M 2676 1736 L 2671 1738 L 2654 1740 L 2648 1743 Q 2642 1746 2644 1756 Q 2647 1760 2654 1762 Q 2664 1763 2670 1759 Q 2675 1756 2677 1749 L 2677 1737 L 2676 1736 Z " /><path fill="rgb(232,232,232)" stroke="rgb(232,232,232)" stroke-width="1" opacity="1" d="M 2880.5 1691 Q 2908.7 1688.8 2919 1704.5 L 2926 1719.5 L 2927 1737.5 L 2925.5 1739 L 2868 1739.5 L 2872 1752.5 L 2877.5 1758 Q 2883 1762.5 2894.5 1761 Q 2901.3 1759.8 2905 1755.5 L 2907.5 1750 L 2908.5 1751 L 2926 1752 Q 2924 1763.3 2915.5 1769 Q 2909.1 1774.1 2899.5 1776 L 2879.5 1776 Q 2865.7 1772.8 2858 1763.5 Q 2846.1 1751.4 2849 1724.5 Q 2852 1706.5 2864.5 1698 L 2875.5 1692 L 2880.5 1691 Z M 2885 1706 L 2878 1709 Q 2872 1713 2869 1721 Q 2868 1725 2870 1725 L 2907 1725 L 2907 1719 L 2903 1712 Q 2899 1707 2893 1706 L 2885 1706 Z " /><path fill="rgb(232,232,232)" stroke="rgb(232,232,232)" stroke-width="1" opacity="1" d="M 931 1692 L 950.5 1692 L 951 1692.5 L 951 1773.5 L 949.5 1775 L 931 1775 L 931 1692 Z " /><path fill="rgb(232,232,232)" stroke="rgb(232,232,232)" stroke-width="1" opacity="1" d="M 1086 1692 L 1105.5 1692 L 1107 1693.5 Q 1112.6 1723.4 1121.5 1750 L 1135 1696.5 L 1137.5 1692 L 1156.5 1692 L 1157 1694.5 L 1165 1721.5 L 1170 1744.5 L 1172.5 1749 L 1187 1692 L 1206.5 1692 L 1207 1694.5 L 1184 1775 L 1163.5 1775 L 1162 1773.5 L 1150 1727.5 L 1146.5 1719 L 1140 1738.5 L 1131 1773.5 L 1129.5 1775 L 1110.5 1775 L 1109 1773.5 L 1086 1692 Z " /><path fill="rgb(232,232,232)" stroke="rgb(232,232,232)" stroke-width="1" opacity="1" d="M 1852 1692 L 1871.5 1692 L 1872 1692.5 L 1872 1775 L 1852.5 1775 L 1852 1774.5 L 1852 1692 Z " /><path fill="rgb(232,232,232)" stroke="rgb(232,232,232)" stroke-width="1" opacity="1" d="M 2371 1692 L 2391.5 1692 L 2392 1693.5 L 2411.5 1753 L 2431 1692 L 2451.5 1692 L 2452 1693.5 L 2424 1771.5 L 2421.5 1775 L 2401.5 1775 L 2400 1773.5 L 2371 1692 Z " /><path fill="rgb(232,232,232)" stroke="rgb(232,232,232)" stroke-width="1" opacity="1" d="M 2549 1692 L 2568.5 1692 L 2569 1692.5 L 2569 1775 L 2549.5 1775 L 2549 1774.5 L 2549 1692 Z " /><path fill="rgb(232,232,232)" stroke="rgb(232,232,232)" stroke-width="1" opacity="1" d="M 1281.5 1932 Q 1301.5 1930.5 1308 1942.5 L 1312 1951.5 L 1313 1961.5 L 1310 1974.5 L 1301.5 1984 Q 1295.2 1989.7 1281.5 1988 Q 1271.3 1985.3 1266 1977.5 Q 1259.5 1969.5 1262 1952.5 Q 1264.4 1941.4 1272.5 1936 L 1281.5 1932 Z M 1284 1941 L 1278 1944 L 1272 1954 Q 1270 1967 1275 1974 L 1284 1979 Q 1292 1980 1296 1977 L 1301 1970 L 1303 1961 L 1302 1954 L 1299 1947 Q 1295 1940 1284 1941 Z " /><path fill="rgb(232,232,232)" stroke="rgb(232,232,232)" stroke-width="1" opacity="1" d="M 1514.5 1932 Q 1532 1930 1538 1939.5 Q 1540.8 1942.5 1540 1948 L 1531.5 1948 L 1530 1946.5 L 1527.5 1942 L 1518.5 1940 L 1514.5 1941 L 1511 1944.5 L 1510 1948.5 L 1513.5 1953 L 1531.5 1958 L 1540 1965.5 L 1541 1975.5 Q 1539.8 1981.3 1535.5 1984 Q 1528.5 1990 1513.5 1988 L 1502 1981.5 Q 1497.9 1978.3 1499 1971 L 1507.5 1971 L 1509 1972.5 Q 1508.5 1977.5 1512.5 1978 L 1521.5 1980 L 1527.5 1978 L 1530 1975.5 L 1531 1970.5 L 1528.5 1967 L 1511.5 1962 L 1502 1955.5 Q 1498.8 1952.2 1500 1944.5 Q 1501.6 1937.6 1507.5 1935 L 1514.5 1932 Z " /><path fill="rgb(232,232,232)" stroke="rgb(232,232,232)" stroke-width="1" opacity="1" d="M 1568.5 1932 Q 1588.5 1930.5 1595 1942.5 L 1599 1951.5 L 1600 1961.5 L 1597 1974.5 L 1588.5 1984 Q 1582.2 1989.7 1568.5 1988 Q 1558.3 1985.3 1553 1977.5 Q 1546.5 1969.5 1549 1952.5 Q 1551.4 1941.4 1559.5 1936 L 1568.5 1932 Z M 1571 1941 L 1565 1944 L 1559 1954 Q 1557 1967 1562 1974 L 1571 1979 Q 1579 1980 1583 1977 L 1588 1970 L 1590 1961 L 1589 1954 L 1586 1947 Q 1582 1940 1571 1941 Z " /><path fill="rgb(232,232,232)" stroke="rgb(232,232,232)" stroke-width="1" opacity="1" d="M 746 1933 L 781.5 1933 Q 782.8 1933.3 782 1939.5 L 780.5 1941 L 756 1941 L 756 1956 L 780 1956 L 780 1964 L 756 1964 L 756 1979 L 781.5 1979 L 782 1979.5 L 782 1987 L 746 1987 L 746 1933 Z " /><path fill="rgb(232,232,232)" stroke="rgb(232,232,232)" stroke-width="1" opacity="1" d="M 793 1933 L 819.5 1933 Q 826.5 1934.5 830 1939.5 Q 834.1 1944 833 1953.5 Q 831.9 1960.9 826.5 1964 L 823 1965 L 834 1987 L 823.5 1987 L 823 1985.5 L 813 1967 L 803 1967 L 803 1987 L 793 1987 L 793 1933 Z M 803 1941 L 803 1959 L 816 1959 L 819 1958 L 823 1952 L 821 1945 L 816 1941 L 803 1941 Z " /><path fill="rgb(232,232,232)" stroke="rgb(232,232,232)" stroke-width="1" opacity="1" d="M 843 1933 L 869.5 1933 Q 876.5 1934.5 880 1939.5 Q 884 1944 883 1953.5 Q 881.9 1960.9 876.5 1964 L 873 1965 L 884 1987 L 873.5 1987 L 873 1985.5 L 863 1967 L 853 1967 L 853 1987 L 843 1987 L 843 1933 Z M 853 1941 L 853 1959 L 866 1959 L 869 1958 L 873 1952 L 871 1945 L 866 1941 L 853 1941 Z " /><path fill="rgb(232,232,232)" stroke="rgb(232,232,232)" stroke-width="1" opacity="1" d="M 935 1933 L 944.5 1933 L 945 1934.5 L 969.5 1969 L 971 1968.5 L 971 1933.5 L 971.5 1933 L 981 1933 L 981 1986.5 L 980.5 1987 L 971.5 1987 L 947 1951 L 945 1951.5 L 945 1987 L 935 1987 L 935 1933 Z " /><path fill="rgb(232,232,232)" stroke="rgb(232,232,232)" stroke-width="1" opacity="1" d="M 1008.5 1933 L 1020.5 1933 L 1021 1935.5 L 1040 1986.5 L 1029.5 1987 L 1028 1985.5 L 1025 1974 L 1004.5 1974 L 1003 1975.5 L 998.5 1987 L 989.5 1987 L 989 1984.5 L 1005 1939.5 L 1008.5 1933 Z M 1013 1945 L 1007 1964 L 1008 1966 L 1021 1966 L 1015 1948 Q 1016 1944 1013 1945 Z " /><path fill="rgb(232,232,232)" stroke="rgb(232,232,232)" stroke-width="1" opacity="1" d="M 1047 1933 L 1059.5 1933 L 1060 1934.5 L 1073 1966.5 L 1076.5 1972 L 1092 1933 L 1104.5 1933 L 1105 1933.5 L 1105 1987 L 1096.5 1987 L 1096 1986.5 L 1096 1951.5 L 1094 1951 L 1080 1987 L 1072.5 1987 L 1072 1985.5 L 1057.5 1951 L 1057 1987 L 1047.5 1987 L 1047 1986.5 L 1047 1933 Z " /><path fill="rgb(232,232,232)" stroke="rgb(232,232,232)" stroke-width="1" opacity="1" d="M 1117 1933 L 1152.5 1933 L 1153 1933.5 L 1153 1941 L 1127 1941 L 1127 1954.5 L 1128.5 1956 L 1151 1956 L 1151 1964 L 1127 1964 L 1127 1977.5 L 1128.5 1979 L 1153 1979 L 1153 1986.5 L 1152.5 1987 L 1117 1987 L 1117 1933 Z " /><path fill="rgb(232,232,232)" stroke="rgb(232,232,232)" stroke-width="1" opacity="1" d="M 1206 1933 L 1215.5 1933 L 1216 1934.5 L 1240.5 1969 L 1242 1968.5 L 1242 1933.5 L 1242.5 1933 L 1252 1933 L 1252 1986.5 L 1251.5 1987 L 1242.5 1987 L 1218 1951 L 1216 1951.5 L 1216 1987 L 1206 1987 L 1206 1933 Z " /><path fill="rgb(232,232,232)" stroke="rgb(232,232,232)" stroke-width="1" opacity="1" d="M 1318 1933 L 1361.5 1933 Q 1362.8 1933.3 1362 1939.5 L 1360.5 1941 L 1345 1941 L 1345 1986.5 L 1344.5 1987 L 1335 1987 L 1335 1942.5 L 1333.5 1941 L 1318 1941 L 1318 1933 Z " /><path fill="rgb(232,232,232)" stroke="rgb(232,232,232)" stroke-width="1" opacity="1" d="M 1405 1933 L 1431.5 1933 Q 1438.5 1934.5 1442 1939.5 Q 1446 1944 1445 1953.5 Q 1443.9 1960.9 1438.5 1964 L 1435 1965 L 1446 1987 L 1435.5 1987 L 1435 1985.5 L 1425 1967 L 1415 1967 L 1415 1987 L 1405 1987 L 1405 1933 Z M 1415 1941 L 1415 1959 L 1428 1959 L 1431 1958 L 1435 1952 L 1433 1945 L 1428 1941 L 1415 1941 Z " /><path fill="rgb(232,232,232)" stroke="rgb(232,232,232)" stroke-width="1" opacity="1" d="M 1455 1933 L 1490.5 1933 L 1491 1933.5 L 1491 1941 L 1465 1941 L 1465 1954.5 L 1466.5 1956 L 1489 1956 L 1489 1964 L 1465 1964 L 1465 1977.5 L 1466.5 1979 L 1491 1979 L 1491 1986.5 L 1490.5 1987 L 1455 1987 L 1455 1933 Z " /><path fill="rgb(232,232,232)" stroke="rgb(232,232,232)" stroke-width="1" opacity="1" d="M 1609 1933 L 1618.5 1933 L 1619 1933.5 L 1619 1977.5 L 1620.5 1979 L 1644 1979 L 1644 1986.5 L 1643.5 1987 L 1609 1987 L 1609 1933 Z " /><path fill="rgb(232,232,232)" stroke="rgb(232,232,232)" stroke-width="1" opacity="1" d="M 1642 1933 L 1652.5 1933 L 1654 1934.5 L 1667.5 1975 L 1669 1973.5 L 1682 1933 L 1692.5 1933 L 1693 1934.5 L 1674 1987 L 1661.5 1987 L 1661 1985.5 L 1642 1933 Z " /><path fill="rgb(232,232,232)" stroke="rgb(232,232,232)" stroke-width="1" opacity="1" d="M 1701 1933 L 1736.5 1933 L 1737 1933.5 L 1737 1941 L 1711 1941 L 1711 1954.5 L 1712.5 1956 L 1735 1956 L 1735 1964 L 1711 1964 L 1711 1977.5 L 1712.5 1979 L 1737 1979 L 1737 1986.5 L 1736.5 1987 L 1701 1987 L 1701 1933 Z " /><path fill="rgb(232,232,232)" stroke="rgb(232,232,232)" stroke-width="1" opacity="1" d="M 1748 1933 L 1773.5 1933 Q 1782.1 1934.9 1787 1940.5 L 1793 1952.5 L 1793 1966.5 Q 1791.3 1976.8 1784.5 1982 L 1773.5 1987 L 1748 1987 L 1748 1933 Z M 1758 1941 L 1758 1979 Q 1769 1980 1776 1977 Q 1781 1974 1783 1967 L 1783 1955 L 1779 1945 Q 1772 1940 1758 1941 Z " /><path fill="rgb(232,232,232)" stroke="rgb(232,232,232)" stroke-width="1" opacity="1" d="M 891 1987 L 925.5 1987 L 926 1987.5 L 926 1995 L 891.5 1995 L 891 1994.5 L 891 1987 Z " /><path fill="rgb(232,232,232)" stroke="rgb(232,232,232)" stroke-width="1" opacity="1" d="M 1162 1987 L 1196.5 1987 L 1197 1987.5 L 1197 1995 L 1162.5 1995 L 1162 1994.5 L 1162 1987 Z " /><path fill="rgb(232,232,232)" stroke="rgb(232,232,232)" stroke-width="1" opacity="1" d="M 1361 1987 L 1395.5 1987 L 1396 1987.5 L 1396 1995 L 1361.5 1995 L 1361 1994.5 L 1361 1987 Z " /><path fill="rgb(0,0,0)" stroke="rgb(0,0,0)" stroke-width="1" opacity="1" d="M 0 0 L 5036 0 L 5036 2725 L 0 2725 L 0 0 Z M 736 753 L 736 1253 L 1141 1253 L 1141 875 L 1140 873 L 1107 873 L 1107 919 L 982 919 L 982 791 L 1023 791 L 1024 790 L 1024 754 L 1024 753 L 736 753 Z M 1026 792 L 1026 830 L 1064 830 L 1064 794 L 1063 792 L 1026 792 Z M 1067 834 L 1067 872 L 1105 872 L 1105 834 L 1067 834 Z M 938 1659 L 934 1661 L 929 1668 Q 928 1673 931 1676 L 938 1680 L 947 1679 Q 954 1677 952 1666 L 945 1659 L 938 1659 Z M 1859 1659 L 1857 1660 L 1851 1666 L 1851 1674 L 1859 1680 Q 1866 1681 1870 1678 L 1874 1672 Q 1875 1666 1872 1664 Q 1869 1658 1859 1659 Z M 2556 1659 L 2554 1660 L 2548 1666 L 2548 1674 L 2556 1680 Q 2563 1681 2567 1678 L 2571 1672 Q 2572 1666 2569 1664 Q 2566 1658 2556 1659 Z M 734 1664 L 734 1681 L 768 1681 L 768 1682 L 768 1775 L 788 1775 L 789 1774 L 789 1681 L 823 1681 L 823 1665 L 823 1664 L 734 1664 Z M 837 1664 L 837 1775 L 838 1775 L 857 1775 L 857 1723 L 860 1715 Q 864 1708 873 1707 L 878 1707 L 885 1709 Q 891 1713 892 1722 L 892 1775 L 911 1775 L 912 1774 L 912 1719 Q 910 1717 911 1712 L 907 1703 Q 901 1694 890 1691 Q 875 1689 868 1694 L 858 1705 L 857 1666 L 856 1664 L 837 1664 Z M 1305 1664 L 1305 1775 L 1306 1775 L 1325 1775 L 1325 1665 L 1325 1664 L 1305 1664 Z M 1345 1664 L 1345 1775 L 1346 1775 L 1364 1775 L 1365 1774 L 1365 1666 L 1364 1664 L 1345 1664 Z M 2589 1664 L 2589 1775 L 2590 1775 L 2608 1775 L 2609 1774 L 2609 1666 L 2608 1664 L 2589 1664 Z M 2717 1664 L 2717 1775 L 2718 1775 L 2736 1775 L 2737 1774 L 2738 1762 L 2739 1765 Q 2745 1773 2755 1776 L 2769 1776 L 2781 1771 L 2792 1758 L 2795 1750 L 2796 1738 L 2797 1737 L 2795 1718 L 2789 1705 Q 2783 1694 2769 1691 Q 2753 1689 2747 1695 L 2740 1703 L 2737 1705 L 2737 1664 L 2717 1664 Z M 2813 1664 L 2813 1775 L 2814 1775 L 2832 1775 L 2833 1774 L 2833 1666 L 2832 1664 L 2813 1664 Z M 2202 1672 L 2202 1692 L 2191 1692 L 2191 1707 L 2202 1707 L 2202 1754 Q 2205 1755 2203 1762 L 2205 1766 Q 2210 1774 2223 1776 Q 2234 1777 2240 1774 L 2237 1761 L 2237 1759 L 2227 1759 L 2222 1753 L 2222 1707 L 2238 1707 L 2239 1706 L 2239 1692 L 2224 1692 L 2222 1691 L 2222 1672 L 2202 1672 Z M 994 1691 L 986 1693 L 979 1697 Q 971 1701 969 1710 L 969 1724 L 971 1728 Q 976 1735 986 1738 L 1007 1742 L 1015 1745 L 1018 1751 L 1017 1756 L 1014 1759 L 1005 1762 Q 995 1762 990 1758 L 985 1750 L 966 1752 Q 967 1760 971 1765 Q 978 1773 992 1776 L 1012 1776 Q 1022 1774 1029 1769 Q 1036 1764 1038 1755 Q 1039 1744 1035 1739 Q 1030 1732 1022 1729 L 1001 1725 L 993 1722 L 988 1717 L 990 1709 L 1001 1705 Q 1010 1705 1015 1709 L 1018 1716 L 1021 1715 L 1036 1714 L 1036 1711 L 1031 1702 Q 1020 1688 994 1691 Z M 1243 1691 Q 1233 1693 1227 1698 Q 1218 1703 1216 1714 L 1235 1716 L 1237 1712 L 1246 1706 Q 1256 1704 1262 1708 L 1266 1716 Q 1267 1721 1265 1723 L 1259 1725 L 1233 1728 L 1220 1735 L 1214 1744 Q 1216 1749 1213 1751 L 1214 1760 L 1217 1766 Q 1222 1774 1234 1776 Q 1253 1779 1262 1770 L 1266 1765 L 1267 1766 L 1267 1775 L 1285 1775 L 1286 1774 L 1286 1714 L 1282 1704 Q 1271 1688 1243 1691 Z M 1422 1691 L 1414 1695 L 1405 1706 L 1404 1706 L 1404 1692 L 1384 1692 L 1384 1806 L 1385 1806 L 1404 1806 L 1405 1762 L 1407 1766 Q 1412 1773 1422 1776 Q 1443 1778 1452 1768 L 1460 1756 L 1464 1739 L 1464 1729 L 1463 1728 L 1462 1717 L 1453 1701 L 1440 1692 Q 1432 1690 1422 1691 Z M 1505 1691 L 1497 1693 L 1486 1700 L 1479 1709 L 1478 1714 L 1496 1716 L 1498 1713 Q 1501 1708 1508 1706 Q 1516 1705 1522 1707 Q 1527 1710 1528 1718 L 1527 1722 L 1521 1725 L 1505 1726 L 1495 1728 L 1484 1733 Q 1477 1737 1475 1746 Q 1473 1761 1480 1768 Q 1486 1773 1495 1776 L 1512 1776 L 1521 1772 L 1526 1766 L 1528 1765 L 1528 1775 L 1547 1775 L 1547 1712 L 1542 1702 Q 1531 1688 1505 1691 Z M 1605 1691 L 1595 1696 L 1588 1705 L 1586 1705 L 1586 1692 L 1567 1692 L 1567 1806 L 1568 1806 L 1586 1806 L 1587 1805 L 1588 1762 L 1591 1768 Q 1596 1773 1605 1776 L 1619 1776 L 1632 1770 L 1640 1761 L 1644 1752 L 1646 1743 Q 1649 1715 1637 1703 Q 1632 1695 1623 1692 Q 1615 1690 1605 1691 Z M 1691 1691 L 1686 1692 L 1675 1698 Q 1662 1707 1659 1725 Q 1656 1751 1668 1764 Q 1676 1773 1690 1776 L 1710 1776 Q 1719 1774 1726 1769 Q 1734 1763 1736 1752 L 1718 1751 L 1715 1756 Q 1711 1760 1705 1761 Q 1693 1763 1688 1758 L 1682 1753 L 1678 1740 L 1736 1739 L 1737 1738 L 1736 1720 L 1729 1705 Q 1719 1689 1691 1691 Z M 1788 1691 L 1782 1694 Q 1776 1697 1774 1704 L 1772 1705 L 1772 1692 L 1753 1692 L 1753 1775 L 1754 1775 L 1772 1775 L 1773 1774 L 1773 1721 L 1775 1717 Q 1779 1710 1788 1708 L 1797 1708 L 1798 1709 L 1801 1709 L 1801 1693 L 1800 1691 L 1788 1691 Z M 1915 1691 L 1907 1693 L 1900 1697 Q 1892 1701 1890 1710 L 1890 1724 L 1892 1728 Q 1897 1735 1907 1738 L 1928 1742 L 1936 1745 L 1939 1751 L 1938 1756 L 1935 1759 L 1926 1762 Q 1916 1762 1911 1758 L 1906 1750 L 1887 1752 Q 1888 1760 1892 1765 Q 1899 1773 1913 1776 L 1933 1776 Q 1943 1774 1950 1769 Q 1957 1764 1959 1755 Q 1960 1744 1956 1739 Q 1951 1732 1943 1729 L 1922 1725 L 1914 1722 L 1909 1717 L 1911 1709 L 1922 1705 Q 1931 1705 1936 1709 L 1939 1716 L 1942 1715 L 1957 1714 L 1957 1711 L 1952 1702 Q 1941 1688 1915 1691 Z M 2051 1691 L 2041 1696 Q 2036 1699 2034 1705 L 2032 1705 L 2032 1692 L 2013 1692 L 2013 1775 L 2014 1775 L 2033 1775 L 2033 1723 L 2036 1715 Q 2040 1708 2049 1707 L 2054 1707 L 2063 1711 L 2067 1720 L 2067 1775 L 2087 1775 L 2087 1715 L 2081 1701 Q 2076 1693 2066 1691 L 2051 1691 Z M 2134 1691 Q 2123 1693 2117 1699 L 2106 1713 L 2102 1729 L 2102 1739 L 2104 1750 L 2111 1763 Q 2119 1773 2134 1776 Q 2157 1779 2168 1769 L 2177 1759 L 2182 1746 Q 2181 1740 2183 1739 L 2182 1722 Q 2180 1711 2174 1705 Q 2167 1696 2156 1692 L 2151 1691 L 2134 1691 Z M 2319 1691 Q 2309 1693 2303 1698 Q 2294 1703 2292 1714 L 2311 1716 L 2313 1712 L 2322 1706 Q 2332 1704 2338 1708 L 2342 1716 Q 2343 1721 2341 1723 L 2335 1725 L 2309 1728 L 2296 1735 L 2290 1744 Q 2292 1749 2289 1751 L 2290 1760 L 2293 1766 Q 2298 1774 2310 1776 Q 2329 1779 2338 1770 L 2342 1765 L 2343 1766 L 2343 1775 L 2361 1775 L 2362 1774 L 2362 1714 L 2358 1704 Q 2347 1688 2319 1691 Z M 2487 1691 Q 2477 1693 2471 1698 Q 2462 1703 2460 1714 L 2479 1716 L 2481 1712 L 2490 1706 Q 2500 1704 2506 1708 L 2510 1716 Q 2511 1721 2509 1723 L 2503 1725 L 2477 1728 L 2464 1735 L 2458 1744 Q 2460 1749 2457 1751 L 2458 1760 L 2461 1766 Q 2466 1774 2478 1776 Q 2497 1779 2506 1770 L 2510 1765 L 2511 1766 L 2511 1775 L 2529 1775 L 2530 1774 L 2530 1714 L 2526 1704 Q 2515 1688 2487 1691 Z M 2654 1691 Q 2644 1693 2638 1698 Q 2629 1703 2627 1714 L 2646 1716 L 2648 1712 L 2657 1706 Q 2667 1704 2673 1708 L 2677 1716 Q 2678 1721 2676 1723 L 2670 1725 L 2644 1728 L 2631 1735 L 2625 1744 Q 2627 1749 2624 1751 L 2625 1760 L 2628 1766 Q 2633 1774 2645 1776 Q 2664 1779 2673 1770 L 2677 1765 L 2678 1766 L 2678 1775 L 2696 1775 L 2697 1774 L 2697 1714 L 2693 1704 Q 2682 1688 2654 1691 Z M 2881 1691 L 2876 1692 L 2865 1698 Q 2852 1707 2849 1725 Q 2846 1751 2858 1764 Q 2866 1773 2880 1776 L 2900 1776 Q 2909 1774 2916 1769 Q 2924 1763 2926 1752 L 2909 1751 L 2908 1750 L 2905 1756 Q 2901 1760 2895 1761 Q 2883 1763 2878 1758 L 2872 1753 L 2868 1740 L 2926 1739 L 2927 1738 L 2926 1720 L 2919 1705 Q 2909 1689 2881 1691 Z M 931 1692 L 931 1775 L 950 1775 L 951 1774 L 951 1693 L 951 1692 L 931 1692 Z M 1086 1692 L 1109 1774 L 1111 1775 L 1130 1775 L 1131 1774 L 1140 1739 L 1147 1719 L 1150 1728 L 1162 1774 L 1164 1775 L 1184 1775 L 1207 1695 L 1207 1692 L 1187 1692 L 1173 1749 L 1170 1745 L 1165 1722 L 1157 1695 L 1157 1692 L 1138 1692 L 1135 1697 L 1122 1750 Q 1113 1723 1107 1694 L 1106 1692 L 1086 1692 Z M 1852 1692 L 1852 1775 L 1853 1775 L 1872 1775 L 1872 1693 L 1872 1692 L 1852 1692 Z M 2371 1692 L 2400 1774 L 2402 1775 L 2422 1775 L 2424 1772 L 2452 1694 L 2452 1692 L 2431 1692 L 2412 1753 L 2392 1694 L 2392 1692 L 2371 1692 Z M 2549 1692 L 2549 1775 L 2550 1775 L 2569 1775 L 2569 1693 L 2569 1692 L 2549 1692 Z M 1282 1932 L 1273 1936 Q 1264 1941 1262 1953 Q 1260 1969 1266 1978 Q 1271 1985 1282 1988 Q 1295 1990 1302 1984 L 1310 1975 L 1313 1962 L 1312 1952 L 1308 1943 Q 1302 1930 1282 1932 Z M 1515 1932 L 1508 1935 Q 1502 1938 1500 1945 Q 1499 1952 1502 1956 L 1512 1962 L 1529 1967 L 1531 1971 L 1530 1976 L 1528 1978 L 1522 1980 L 1513 1978 Q 1509 1977 1509 1973 L 1508 1971 L 1499 1971 Q 1498 1978 1502 1982 L 1514 1988 Q 1529 1990 1536 1984 Q 1540 1981 1541 1976 L 1540 1966 L 1532 1958 L 1514 1953 L 1510 1949 L 1511 1945 L 1515 1941 L 1519 1940 L 1528 1942 L 1530 1947 L 1532 1948 L 1540 1948 Q 1541 1942 1538 1940 Q 1532 1930 1515 1932 Z M 1569 1932 L 1560 1936 Q 1551 1941 1549 1953 Q 1547 1969 1553 1978 Q 1558 1985 1569 1988 Q 1582 1990 1589 1984 L 1597 1975 L 1600 1962 L 1599 1952 L 1595 1943 Q 1589 1930 1569 1932 Z M 746 1933 L 746 1987 L 782 1987 L 782 1980 L 782 1979 L 756 1979 L 756 1964 L 780 1964 L 780 1956 L 756 1956 L 756 1941 L 781 1941 L 782 1940 Q 783 1933 782 1933 L 746 1933 Z M 793 1933 L 793 1987 L 803 1987 L 803 1967 L 813 1967 L 823 1986 L 824 1987 L 834 1987 L 823 1965 L 827 1964 Q 832 1961 833 1954 Q 834 1944 830 1940 Q 826 1935 820 1933 L 793 1933 Z M 843 1933 L 843 1987 L 853 1987 L 853 1967 L 863 1967 L 873 1986 L 874 1987 L 884 1987 L 873 1965 L 877 1964 Q 882 1961 883 1954 Q 884 1944 880 1940 Q 876 1935 870 1933 L 843 1933 Z M 935 1933 L 935 1987 L 945 1987 L 945 1952 L 947 1951 L 972 1987 L 981 1987 L 981 1987 L 981 1933 L 972 1933 L 971 1934 L 971 1969 L 970 1969 L 945 1935 L 945 1933 L 935 1933 Z M 1009 1933 L 1005 1940 L 989 1985 L 990 1987 L 999 1987 L 1003 1976 L 1005 1974 L 1025 1974 L 1028 1986 L 1030 1987 L 1040 1987 L 1021 1936 L 1021 1933 L 1009 1933 Z M 1047 1933 L 1047 1987 L 1048 1987 L 1057 1987 L 1058 1951 L 1072 1986 L 1073 1987 L 1080 1987 L 1094 1951 L 1096 1952 L 1096 1987 L 1097 1987 L 1105 1987 L 1105 1934 L 1105 1933 L 1092 1933 L 1077 1972 L 1073 1967 L 1060 1935 L 1060 1933 L 1047 1933 Z M 1117 1933 L 1117 1987 L 1153 1987 L 1153 1987 L 1153 1979 L 1129 1979 L 1127 1978 L 1127 1964 L 1151 1964 L 1151 1956 L 1129 1956 L 1127 1955 L 1127 1941 L 1153 1941 L 1153 1934 L 1153 1933 L 1117 1933 Z M 1206 1933 L 1206 1987 L 1216 1987 L 1216 1952 L 1218 1951 L 1243 1987 L 1252 1987 L 1252 1987 L 1252 1933 L 1243 1933 L 1242 1934 L 1242 1969 L 1241 1969 L 1216 1935 L 1216 1933 L 1206 1933 Z M 1318 1933 L 1318 1941 L 1334 1941 L 1335 1943 L 1335 1987 L 1345 1987 L 1345 1987 L 1345 1941 L 1361 1941 L 1362 1940 Q 1363 1933 1362 1933 L 1318 1933 Z M 1405 1933 L 1405 1987 L 1415 1987 L 1415 1967 L 1425 1967 L 1435 1986 L 1436 1987 L 1446 1987 L 1435 1965 L 1439 1964 Q 1444 1961 1445 1954 Q 1446 1944 1442 1940 Q 1438 1935 1432 1933 L 1405 1933 Z M 1455 1933 L 1455 1987 L 1491 1987 L 1491 1987 L 1491 1979 L 1467 1979 L 1465 1978 L 1465 1964 L 1489 1964 L 1489 1956 L 1467 1956 L 1465 1955 L 1465 1941 L 1491 1941 L 1491 1934 L 1491 1933 L 1455 1933 Z M 1609 1933 L 1609 1987 L 1644 1987 L 1644 1987 L 1644 1979 L 1621 1979 L 1619 1978 L 1619 1934 L 1619 1933 L 1609 1933 Z M 1642 1933 L 1661 1986 L 1662 1987 L 1674 1987 L 1693 1935 L 1693 1933 L 1682 1933 L 1669 1974 L 1668 1975 L 1654 1935 L 1653 1933 L 1642 1933 Z M 1701 1933 L 1701 1987 L 1737 1987 L 1737 1987 L 1737 1979 L 1713 1979 L 1711 1978 L 1711 1964 L 1735 1964 L 1735 1956 L 1713 1956 L 1711 1955 L 1711 1941 L 1737 1941 L 1737 1934 L 1737 1933 L 1701 1933 Z M 1748 1933 L 1748 1987 L 1774 1987 L 1785 1982 Q 1791 1977 1793 1967 L 1793 1953 L 1787 1941 Q 1782 1935 1774 1933 L 1748 1933 Z M 891 1987 L 891 1995 L 892 1995 L 926 1995 L 926 1988 L 926 1987 L 891 1987 Z M 1162 1987 L 1162 1995 L 1163 1995 L 1197 1995 L 1197 1988 L 1197 1987 L 1162 1987 Z M 1361 1987 L 1361 1995 L 1362 1995 L 1396 1995 L 1396 1988 L 1396 1987 L 1361 1987 Z " /><path fill="rgb(0,0,0)" stroke="rgb(0,0,0)" stroke-width="1" opacity="1" d="M 770 791 L 948 791 L 948 953 L 1105.5 953 L 1107 954.5 L 1107 1219 L 770 1219 L 770 791 Z M 836 873 L 836 953 L 878 953 L 878 873 L 836 873 Z M 878 1073 L 878 1115 L 836 1115 L 836 1157 L 878 1157 L 878 1116 L 1002 1116 L 1003 1118 L 1003 1157 L 1045 1157 L 1045 1117 L 1044 1115 L 1003 1115 L 1003 1074 L 1003 1073 L 878 1073 Z " /><path fill="rgb(0,0,0)" stroke="rgb(0,0,0)" stroke-width="1" opacity="1" d="M 1694.5 1706 L 1702.5 1706 Q 1709.3 1707.3 1713 1711.5 Q 1717.8 1716.6 1718 1725 L 1679.5 1725 Q 1678.5 1725 1679 1720.5 Q 1681.6 1713.1 1687.5 1709 L 1694.5 1706 Z " /><path fill="rgb(0,0,0)" stroke="rgb(0,0,0)" stroke-width="1" opacity="1" d="M 2139.5 1706 L 2145.5 1706 Q 2152.3 1707.3 2156 1711.5 Q 2163.5 1720.5 2163 1737.5 L 2161 1746.5 L 2154.5 1757 Q 2149.2 1761.2 2139.5 1761 Q 2130.6 1759.4 2127 1752.5 L 2123 1743.5 L 2122 1730.5 Q 2124.5 1729 2123 1723.5 L 2127 1714.5 L 2133.5 1708 L 2139.5 1706 Z " /><path fill="rgb(0,0,0)" stroke="rgb(0,0,0)" stroke-width="1" opacity="1" d="M 2884.5 1706 L 2892.5 1706 Q 2899.3 1707.3 2903 1711.5 L 2907 1718.5 L 2907 1725 L 2869.5 1725 Q 2868.5 1725 2869 1720.5 Q 2871.6 1713.1 2877.5 1709 L 2884.5 1706 Z " /><path fill="rgb(0,0,0)" stroke="rgb(0,0,0)" stroke-width="1" opacity="1" d="M 1418.5 1707 Q 1434.3 1705.3 1439 1714.5 L 1442 1721.5 L 1444 1734.5 Q 1441.3 1736.3 1443 1742.5 L 1440 1750.5 L 1434.5 1757 Q 1429.4 1761.3 1418.5 1760 L 1409 1753.5 L 1404 1740.5 L 1404 1725.5 Q 1405.8 1715.3 1412.5 1710 L 1418.5 1707 Z " /><path fill="rgb(0,0,0)" stroke="rgb(0,0,0)" stroke-width="1" opacity="1" d="M 1601.5 1707 Q 1615.2 1705.3 1620 1712.5 Q 1624.5 1718.5 1626 1727.5 L 1626 1739.5 L 1623 1749.5 L 1615.5 1758 Q 1610.8 1761.3 1601.5 1760 Q 1594.3 1758.2 1591 1752.5 L 1587 1743.5 L 1586 1729.5 Q 1588.5 1728 1587 1722.5 L 1590 1715.5 L 1596.5 1709 L 1601.5 1707 Z " /><path fill="rgb(0,0,0)" stroke="rgb(0,0,0)" stroke-width="1" opacity="1" d="M 2751.5 1707 Q 2766.5 1705 2771 1713.5 Q 2778.4 1722.6 2776 1741.5 Q 2774.2 1751.7 2767.5 1757 Q 2762.3 1761.3 2751.5 1760 L 2742 1753.5 Q 2734.5 1744 2737 1724.5 Q 2738.8 1714.8 2745.5 1710 L 2751.5 1707 Z " /><path fill="rgb(0,0,0)" stroke="rgb(0,0,0)" stroke-width="1" opacity="1" d="M 1264.5 1736 L 1266 1736.5 L 1266 1748.5 Q 1264.2 1755.7 1258.5 1759 Q 1253.3 1763.3 1242.5 1762 Q 1236 1760.5 1233 1755.5 Q 1231.3 1745.8 1236.5 1743 L 1242.5 1740 L 1259.5 1738 L 1264.5 1736 Z " /><path fill="rgb(0,0,0)" stroke="rgb(0,0,0)" stroke-width="1" opacity="1" d="M 1525.5 1736 L 1528 1736.5 L 1528 1746.5 Q 1526.3 1754.8 1520.5 1759 Q 1514.7 1763.2 1503.5 1762 Q 1497.8 1760.8 1495 1756.5 L 1494 1748.5 L 1499.5 1742 L 1508.5 1739 L 1520.5 1738 L 1525.5 1736 Z " /><path fill="rgb(0,0,0)" stroke="rgb(0,0,0)" stroke-width="1" opacity="1" d="M 2340.5 1736 L 2342 1736.5 L 2342 1748.5 Q 2340.2 1755.7 2334.5 1759 Q 2329.3 1763.3 2318.5 1762 Q 2312 1760.5 2309 1755.5 Q 2307.3 1745.8 2312.5 1743 L 2318.5 1740 L 2335.5 1738 L 2340.5 1736 Z " /><path fill="rgb(0,0,0)" stroke="rgb(0,0,0)" stroke-width="1" opacity="1" d="M 2508.5 1736 L 2510 1736.5 L 2510 1748.5 Q 2508.2 1755.7 2502.5 1759 Q 2497.3 1763.3 2486.5 1762 Q 2480 1760.5 2477 1755.5 Q 2475.3 1745.8 2480.5 1743 L 2486.5 1740 L 2503.5 1738 L 2508.5 1736 Z " /><path fill="rgb(0,0,0)" stroke="rgb(0,0,0)" stroke-width="1" opacity="1" d="M 2675.5 1736 L 2677 1736.5 L 2677 1748.5 Q 2675.2 1755.7 2669.5 1759 Q 2664.3 1763.3 2653.5 1762 Q 2647 1760.5 2644 1755.5 Q 2642.3 1745.8 2647.5 1743 L 2653.5 1740 L 2670.5 1738 L 2675.5 1736 Z " /><path fill="rgb(0,0,0)" stroke="rgb(0,0,0)" stroke-width="1" opacity="1" d="M 803 1941 L 815.5 1941 L 821 1944.5 L 823 1951.5 L 818.5 1958 L 815.5 1959 L 803 1959 L 803 1941 Z " /><path fill="rgb(0,0,0)" stroke="rgb(0,0,0)" stroke-width="1" opacity="1" d="M 853 1941 L 865.5 1941 L 871 1944.5 L 873 1951.5 L 868.5 1958 L 865.5 1959 L 853 1959 L 853 1941 Z " /><path fill="rgb(0,0,0)" stroke="rgb(0,0,0)" stroke-width="1" opacity="1" d="M 1283.5 1941 Q 1295 1940 1299 1946.5 L 1302 1953.5 L 1303 1960.5 L 1301 1969.5 L 1295.5 1977 Q 1291.5 1980 1283.5 1979 L 1275 1973.5 Q 1270.4 1966.6 1272 1953.5 L 1277.5 1944 L 1283.5 1941 Z " /><path fill="rgb(0,0,0)" stroke="rgb(0,0,0)" stroke-width="1" opacity="1" d="M 1415 1941 L 1427.5 1941 L 1433 1944.5 L 1435 1951.5 L 1430.5 1958 L 1427.5 1959 L 1415 1959 L 1415 1941 Z " /><path fill="rgb(0,0,0)" stroke="rgb(0,0,0)" stroke-width="1" opacity="1" d="M 1570.5 1941 Q 1582 1940 1586 1946.5 L 1589 1953.5 L 1590 1960.5 L 1588 1969.5 L 1582.5 1977 Q 1578.5 1980 1570.5 1979 L 1562 1973.5 Q 1557.4 1966.6 1559 1953.5 L 1564.5 1944 L 1570.5 1941 Z " /><path fill="rgb(0,0,0)" stroke="rgb(0,0,0)" stroke-width="1" opacity="1" d="M 1758 1941 Q 1771.8 1939.5 1779 1945 L 1783 1954.5 L 1783 1966.5 Q 1781.2 1973.7 1775.5 1977 Q 1768.5 1980.2 1758 1979 L 1758 1941 Z " /><path fill="rgb(0,0,0)" stroke="rgb(0,0,0)" stroke-width="1" opacity="1" d="M 1013 1945 Q 1016 1943.8 1015 1947.5 L 1021 1966 L 1007.5 1966 L 1007 1963.5 L 1013 1945 Z " /></svg>