<svg width="212" height="187" version="1.1" xmlns="http://www.w3.org/2000/svg" desc="Created with imagetracer.js version 1.2.6" ><path fill="rgb(243,232,196)" stroke="rgb(243,232,196)" stroke-width="1" opacity="1" d="M 0 0 L 24.5 0 L 26 1.5 L 26 25.5 Q 25.9 26.6 20.5 26 L 19.5 27 L 0 27 L 0 0 Z " /><path fill="rgb(243,232,196)" stroke="rgb(243,232,196)" stroke-width="1" opacity="1" d="M 81 0 L 107 0 L 107 24.5 L 106 27 L 87.5 27 L 81 26 L 81 0 Z " /><path fill="rgb(243,232,196)" stroke="rgb(243,232,196)" stroke-width="1" opacity="1" d="M 109 139 L 127.5 139 L 128 141.5 L 129 142.5 L 129 183 L 153 183 L 153 160 L 173 160 L 174 163.5 L 174 182.5 L 175 187 L 38.5 187 L 38 184.5 L 39 183.5 L 39 163.5 L 40 160 L 59.5 160 L 60 161.5 L 61 162.5 L 61 181.5 L 62.5 183 L 83.5 183 L 85 181.5 L 85 168.5 L 86 166 L 108 166 L 108 142.5 L 109 139 Z " /><path fill="rgb(244,221,88)" stroke="rgb(244,221,88)" stroke-width="1" opacity="1" d="M 108 0 L 131.5 0 L 132 1.5 L 133 2.5 L 133 28 L 187 29 L 187 19.5 L 188 18.5 L 188 16.5 L 188 1 L 195.5 1 Q 197.3 -1.8 203.5 0 L 204.5 1 L 212 1 L 212 56 L 90.5 56 L 89.5 55 L 1 55 L 1 32.5 L 0 27 L 92.5 27 L 93.5 28 L 108 28 L 108 0 Z " /><path fill="rgb(216,193,180)" stroke="rgb(216,193,180)" stroke-width="1" opacity="1" d="M 113.5 138 L 124 138.5 L 113.5 139 L 113.5 138 Z " /><path fill="rgb(216,193,180)" stroke="rgb(216,193,180)" stroke-width="1" opacity="1" d="M 108.5 139 L 109 141.5 L 108 141.5 L 108.5 139 Z " /><path fill="rgb(216,193,180)" stroke="rgb(216,193,180)" stroke-width="1" opacity="1" d="M 128.5 139 L 129 141.5 L 128 141.5 L 128.5 139 Z " /><path fill="rgb(216,193,180)" stroke="rgb(216,193,180)" stroke-width="1" opacity="1" d="M 40.5 159 L 60.5 159 L 61 161.5 L 60 161.5 L 59.5 160 L 40 160 L 39.5 163 L 39 160.5 L 40.5 159 Z " /><path fill="rgb(216,193,180)" stroke="rgb(216,193,180)" stroke-width="1" opacity="1" d="M 153.5 159 L 172.5 159 L 174 160.5 L 173.5 163 L 173 160 L 153.5 160 L 153.5 159 Z " /><path fill="rgb(216,193,180)" stroke="rgb(216,193,180)" stroke-width="1" opacity="1" d="M 88.5 165 L 108 165.5 L 88.5 166 L 88.5 165 Z " /><path fill="rgb(216,193,180)" stroke="rgb(216,193,180)" stroke-width="1" opacity="1" d="M 84.5 173 L 85 181.5 L 83.5 183 L 62.5 183 Q 59.8 181.8 61 176.5 L 62 176.5 Q 61.4 181.9 62.5 182 L 84 182 L 84.5 173 Z " /><path fill="rgb(216,193,180)" stroke="rgb(216,193,180)" stroke-width="1" opacity="1" d="M 129.5 176 L 130 182 L 151.5 182 L 152 179.5 L 153 179.5 L 152.5 183 L 129 183 L 129.5 176 Z " /><path fill="rgb(216,193,180)" stroke="rgb(216,193,180)" stroke-width="1" opacity="1" d="M 174.5 182 L 197 183.5 L 196 187 L 175.5 187 L 175 183.5 L 174.5 182 Z " /><path fill="rgb(216,193,180)" stroke="rgb(216,193,180)" stroke-width="1" opacity="1" d="M 32.5 183 L 39 183.5 L 38 187 L 16.5 187 L 16 184 L 31.5 184 L 32.5 183 Z " /><path fill="rgb(247,236,119)" stroke="rgb(247,236,119)" stroke-width="1" opacity="1" d="M 107.5 0 L 108 28 L 93 27.5 L 106 27 L 107 24.5 L 107.5 0 Z " /><path fill="rgb(247,236,119)" stroke="rgb(247,236,119)" stroke-width="1" opacity="1" d="M 20.5 26 L 26 26.5 L 20.5 27 L 20.5 26 Z " /><path fill="rgb(247,236,119)" stroke="rgb(247,236,119)" stroke-width="1" opacity="1" d="M 81.5 26 L 87 26.5 L 81.5 27 L 81.5 26 Z " /><path fill="rgb(221,183,77)" stroke="rgb(221,183,77)" stroke-width="1" opacity="1" d="M 188.5 0 L 196 0.5 L 188.5 1 L 188.5 0 Z " /><path fill="rgb(221,183,77)" stroke="rgb(221,183,77)" stroke-width="1" opacity="1" d="M 204.5 0 L 212 0.5 L 204.5 1 L 204.5 0 Z " /><path fill="rgb(221,183,77)" stroke="rgb(221,183,77)" stroke-width="1" opacity="1" d="M 160.5 28 L 186 28.5 L 160.5 29 L 160.5 28 Z " /><path fill="rgb(221,183,77)" stroke="rgb(221,183,77)" stroke-width="1" opacity="1" d="M 0.5 32 L 1 42.5 L 0 42.5 L 0.5 32 Z " /><path fill="rgb(221,183,77)" stroke="rgb(221,183,77)" stroke-width="1" opacity="1" d="M 1.5 66 L 2 70.5 L 1 70.5 L 1.5 66 Z " /><path fill="rgb(221,183,77)" stroke="rgb(221,183,77)" stroke-width="1" opacity="1" d="M 184.5 83 L 191 83.5 L 184.5 84 L 184.5 83 Z " /><path fill="rgb(240,188,74)" stroke="rgb(240,188,74)" stroke-width="1" opacity="1" d="M 1 55 L 58 55.5 L 54 57.5 L 54 83 L 2 83 L 1 55 Z " /><path fill="rgb(240,188,74)" stroke="rgb(240,188,74)" stroke-width="1" opacity="1" d="M 85.5 55 L 90 55.5 L 85.5 56 L 85.5 55 Z " /><path fill="rgb(240,188,74)" stroke="rgb(240,188,74)" stroke-width="1" opacity="1" d="M 158.5 56 L 212 56 L 212 82.5 L 210.5 84 L 191.5 84 L 190.5 83 L 160 83 L 160 76.5 L 161 75.5 L 161 57 Q 157.7 57.8 158.5 56 Z " /><path fill="rgb(214,147,61)" stroke="rgb(214,147,61)" stroke-width="1" opacity="1" d="M 187.5 1 L 188 4.5 L 187 4.5 L 187.5 1 Z " /><path fill="rgb(214,147,61)" stroke="rgb(214,147,61)" stroke-width="1" opacity="1" d="M 133.5 5 L 134 10.5 L 133 10.5 L 133.5 5 Z " /><path fill="rgb(214,147,61)" stroke="rgb(214,147,61)" stroke-width="1" opacity="1" d="M 133.5 13 L 134 27.5 L 133 27.5 L 133.5 13 Z " /><path fill="rgb(214,147,61)" stroke="rgb(214,147,61)" stroke-width="1" opacity="1" d="M 186.5 22 L 187 27.5 L 186 27.5 L 186.5 22 Z " /><path fill="rgb(214,147,61)" stroke="rgb(214,147,61)" stroke-width="1" opacity="1" d="M 0.5 43 L 1 65.5 L 0 65.5 L 0.5 43 Z " /><path fill="rgb(214,147,61)" stroke="rgb(214,147,61)" stroke-width="1" opacity="1" d="M 1.5 71 L 2 82.5 L 1 82.5 L 1.5 71 Z " /><path fill="rgb(214,147,61)" stroke="rgb(214,147,61)" stroke-width="1" opacity="1" d="M 180.5 83 L 184 83.5 L 180.5 84 L 180.5 83 Z " /><path fill="rgb(226,148,60)" stroke="rgb(226,148,60)" stroke-width="1" opacity="1" d="M 58.5 55 L 84.5 55 L 85.5 56 L 156.5 56 L 161 57 L 161 75.5 L 160 76.5 L 160 83 L 54.5 83 L 54 82.5 L 54 57.5 L 58.5 55 Z " /><path fill="rgb(83,74,74)" stroke="rgb(83,74,74)" stroke-width="1" opacity="1" d="M 79.5 0 L 80 12.5 L 79 12.5 L 79.5 0 Z " /><path fill="rgb(83,74,74)" stroke="rgb(83,74,74)" stroke-width="1" opacity="1" d="M 186.5 0 L 187 7.5 L 186 7.5 L 184 3.5 L 186.5 0 Z " /><path fill="rgb(83,74,74)" stroke="rgb(83,74,74)" stroke-width="1" opacity="1" d="M 27.5 9 L 28 12.5 L 27 12.5 L 27.5 9 Z " /><path fill="rgb(83,74,74)" stroke="rgb(83,74,74)" stroke-width="1" opacity="1" d="M 186.5 16 L 187 18.5 L 186 18.5 L 186.5 16 Z " /><path fill="rgb(83,74,74)" stroke="rgb(83,74,74)" stroke-width="1" opacity="1" d="M 27.5 26 L 32 26.5 L 27.5 27 L 27.5 26 Z " /><path fill="rgb(83,74,74)" stroke="rgb(83,74,74)" stroke-width="1" opacity="1" d="M 77.5 26 L 80 26.5 L 77.5 27 L 77.5 26 Z " /><path fill="rgb(83,74,74)" stroke="rgb(83,74,74)" stroke-width="1" opacity="1" d="M 134.5 27 L 137 27.5 L 134.5 28 L 134.5 27 Z " /><path fill="rgb(83,74,74)" stroke="rgb(83,74,74)" stroke-width="1" opacity="1" d="M 183.5 27 L 186 27.5 L 183.5 28 L 183.5 27 Z " /><path fill="rgb(83,74,74)" stroke="rgb(83,74,74)" stroke-width="1" opacity="1" d="M 0.5 70 L 1 75.5 L 0 75.5 L 0.5 70 Z " /><path fill="rgb(83,74,74)" stroke="rgb(83,74,74)" stroke-width="1" opacity="1" d="M 2.5 83 L 55 83.5 L 54 84.5 L 54 117.5 L 55 118.5 L 55 135 L 61 135 L 61 138.5 L 60 138.5 L 60 136 L 55 136 L 54.5 138 L 39.5 138 L 38 139.5 L 37.5 146 L 37 138 L 28.5 138 L 28 137.5 L 28 87.5 L 27 84 L 2.5 84 L 2.5 83 Z " /><path fill="rgb(83,74,74)" stroke="rgb(83,74,74)" stroke-width="1" opacity="1" d="M 81.5 83 L 134 83.5 L 108 84 L 108 138.5 L 107 139.5 L 107 165 L 82.5 165 L 82 161.5 L 81 159.5 L 82 158.5 L 82 145.5 L 81 144.5 L 81 136.5 L 82 135.5 L 82 84.5 L 81.5 83 Z " /><path fill="rgb(83,74,74)" stroke="rgb(83,74,74)" stroke-width="1" opacity="1" d="M 159.5 83 L 212 84.5 L 187 85 L 186 88.5 L 186 138 L 176 138 L 176 145.5 L 175 145.5 Q 176.5 139.5 173.5 138 L 160.5 138 L 159.5 136 L 153 136 L 152.5 138 L 152 135 L 159.5 135 L 160 134.5 L 160 84.5 L 159.5 83 Z " /><path fill="rgb(83,74,74)" stroke="rgb(83,74,74)" stroke-width="1" opacity="1" d="M 61.5 144 L 62 155.5 L 61 155.5 L 61.5 144 Z " /><path fill="rgb(83,74,74)" stroke="rgb(83,74,74)" stroke-width="1" opacity="1" d="M 38.5 152 L 39 159.5 L 38 159.5 L 38.5 152 Z " /><path fill="rgb(83,74,74)" stroke="rgb(83,74,74)" stroke-width="1" opacity="1" d="M 174.5 152 L 175 159.5 L 174 159.5 L 174.5 152 Z " /><path fill="rgb(83,74,74)" stroke="rgb(83,74,74)" stroke-width="1" opacity="1" d="M 175.5 179 L 176 181 L 178 181.5 L 175 182 L 175.5 179 Z " /><path fill="rgb(83,74,74)" stroke="rgb(83,74,74)" stroke-width="1" opacity="1" d="M 37.5 180 L 38 183 L 35 182.5 L 37 182 L 37.5 180 Z " /><path fill="rgb(83,74,74)" stroke="rgb(83,74,74)" stroke-width="1" opacity="1" d="M 197.5 182 L 198 186.5 L 197 186.5 L 197.5 182 Z " /><path fill="rgb(64,54,60)" stroke="rgb(64,54,60)" stroke-width="1" opacity="1" d="M 185.5 0 L 185 1.5 L 184 4.5 L 184.5 6 Q 181.9 6.8 183 3.5 L 185.5 0 Z " /><path fill="rgb(64,54,60)" stroke="rgb(64,54,60)" stroke-width="1" opacity="1" d="M 134.5 5 L 135 10.5 L 134 10.5 L 134.5 5 Z " /><path fill="rgb(64,54,60)" stroke="rgb(64,54,60)" stroke-width="1" opacity="1" d="M 186.5 8 L 187 11.5 L 186 11.5 L 186.5 8 Z " /><path fill="rgb(64,54,60)" stroke="rgb(64,54,60)" stroke-width="1" opacity="1" d="M 27.5 17 L 28 25.5 L 27 25.5 L 27.5 17 Z " /><path fill="rgb(64,54,60)" stroke="rgb(64,54,60)" stroke-width="1" opacity="1" d="M 185.5 18 L 186 26.5 L 185 26.5 L 185.5 18 Z " /><path fill="rgb(64,54,60)" stroke="rgb(64,54,60)" stroke-width="1" opacity="1" d="M 79.5 21 L 80 25.5 L 79 25.5 L 79.5 21 Z " /><path fill="rgb(64,54,60)" stroke="rgb(64,54,60)" stroke-width="1" opacity="1" d="M 134.5 22 L 135 26.5 L 134 26.5 L 134.5 22 Z " /><path fill="rgb(64,54,60)" stroke="rgb(64,54,60)" stroke-width="1" opacity="1" d="M 32.5 26 L 36 26.5 L 32.5 27 L 32.5 26 Z " /><path fill="rgb(64,54,60)" stroke="rgb(64,54,60)" stroke-width="1" opacity="1" d="M 74.5 26 L 77 26.5 L 74.5 27 L 74.5 26 Z " /><path fill="rgb(64,54,60)" stroke="rgb(64,54,60)" stroke-width="1" opacity="1" d="M 137.5 27 L 140 27.5 L 137.5 28 L 137.5 27 Z " /><path fill="rgb(64,54,60)" stroke="rgb(64,54,60)" stroke-width="1" opacity="1" d="M 177.5 27 L 183 27.5 L 177.5 28 L 177.5 27 Z " /><path fill="rgb(64,54,60)" stroke="rgb(64,54,60)" stroke-width="1" opacity="1" d="M 0.5 76 L 1 81.5 L 0 81.5 L 0.5 76 Z " /><path fill="rgb(64,54,60)" stroke="rgb(64,54,60)" stroke-width="1" opacity="1" d="M 1.5 83 L 2.5 84 L 27 84 L 28 87.5 L 28 138 L 37 138.5 L 30 139 L 30 164.5 L 28.5 166 L 10.5 165 L 7.5 166 L 4.5 165 L 3 164.5 L 3 152.5 L 2 151.5 L 1.5 83 Z " /><path fill="rgb(64,54,60)" stroke="rgb(64,54,60)" stroke-width="1" opacity="1" d="M 55.5 83 L 80.5 83 L 82 84.5 L 81.5 135 L 81 84 L 55 84 L 55 117.5 L 56 118.5 L 56 134.5 L 55 134.5 L 54 84.5 L 55.5 83 Z " /><path fill="rgb(64,54,60)" stroke="rgb(64,54,60)" stroke-width="1" opacity="1" d="M 134.5 83 L 158.5 83 L 160 84.5 L 159.5 135 L 159 84 L 134 84 L 134 111.5 L 133 112.5 L 133 134.5 L 136.5 136 L 137.5 135 L 148.5 135 L 150.5 136 L 152 135.5 L 152 159 L 130 159 L 130 138 L 108.5 138 L 108 137.5 L 108 84 L 133.5 84 L 134.5 83 Z " /><path fill="rgb(64,54,60)" stroke="rgb(64,54,60)" stroke-width="1" opacity="1" d="M 187 85 L 212 85 L 212 142.5 L 211 143.5 L 211 163.5 L 209.5 165 L 207.5 164 L 206.5 165 L 197.5 165 L 196.5 164 L 184 164 L 185 160.5 L 185 139 L 176 138.5 L 186 138 L 186 88.5 L 187 85 Z " /><path fill="rgb(64,54,60)" stroke="rgb(64,54,60)" stroke-width="1" opacity="1" d="M 37.5 146 L 38 154.5 L 37 154.5 L 37.5 146 Z " /><path fill="rgb(64,54,60)" stroke="rgb(64,54,60)" stroke-width="1" opacity="1" d="M 175.5 146 L 176 151.5 L 175 151.5 L 175.5 146 Z " /><path fill="rgb(64,54,60)" stroke="rgb(64,54,60)" stroke-width="1" opacity="1" d="M 175.5 172 L 176 178.5 L 175 178.5 L 175.5 172 Z " /><path fill="rgb(64,54,60)" stroke="rgb(64,54,60)" stroke-width="1" opacity="1" d="M 37.5 173 L 38 179.5 L 37 179.5 L 37.5 173 Z " /><path fill="rgb(64,54,60)" stroke="rgb(64,54,60)" stroke-width="1" opacity="1" d="M 197.5 178 L 198 180.5 L 197 180.5 L 197.5 178 Z " /><path fill="rgb(64,54,60)" stroke="rgb(64,54,60)" stroke-width="1" opacity="1" d="M 178.5 181 L 185 181.5 L 178.5 182 L 178.5 181 Z " /><path fill="rgb(64,54,60)" stroke="rgb(64,54,60)" stroke-width="1" opacity="1" d="M 28.5 182 L 35 182.5 L 28.5 183 L 28.5 182 Z " /><path fill="rgb(51,58,68)" stroke="rgb(51,58,68)" stroke-width="1" opacity="1" d="M 27 0 L 78.5 0 L 79 0.5 L 79 14 L 29.5 14 L 28 12.5 L 27 0 Z " /><path fill="rgb(51,58,68)" stroke="rgb(51,58,68)" stroke-width="1" opacity="1" d="M 134 0 L 185 0.5 L 183 6 L 186 6 L 186 13.5 L 184.5 15 L 160.5 15 L 159.5 14 L 135 14 L 134 0 Z " /><path fill="rgb(51,58,68)" stroke="rgb(51,58,68)" stroke-width="1" opacity="1" d="M 0.5 82 L 1 111.5 L 2 112.5 L 2 151.5 L 3 152.5 L 3 165 L 5.5 166 L 7.5 166 L 10 166.5 L 10 187 L 0.5 187 L 0 184.5 L 0 182.5 L 0.5 82 Z " /><path fill="rgb(51,58,68)" stroke="rgb(51,58,68)" stroke-width="1" opacity="1" d="M 61 135 L 82 135.5 L 81 136.5 L 81 144.5 L 82 145.5 L 82 159 L 62 159 L 62 144.5 L 61 143.5 L 61 135 Z " /><path fill="rgb(51,58,68)" stroke="rgb(51,58,68)" stroke-width="1" opacity="1" d="M 134.5 135 L 137 135.5 L 134.5 136 L 134.5 135 Z " /><path fill="rgb(51,58,68)" stroke="rgb(51,58,68)" stroke-width="1" opacity="1" d="M 211.5 143 L 212 187 L 198 187 L 198 182.5 L 198 180.5 L 197 175.5 L 197 173.5 Q 196.2 167.4 198 165 L 209.5 165 L 211 163.5 L 211.5 143 Z " /><path fill="rgb(97,81,154)" stroke="rgb(97,81,154)" stroke-width="1" opacity="1" d="M 152.5 138 L 153 158.5 L 152 159.5 L 152 182 L 130 182 L 130 159 L 152 159 L 152.5 138 Z " /><path fill="rgb(97,81,154)" stroke="rgb(97,81,154)" stroke-width="1" opacity="1" d="M 60.5 139 L 61 145.5 L 60 145.5 L 60.5 139 Z " /><path fill="rgb(97,81,154)" stroke="rgb(97,81,154)" stroke-width="1" opacity="1" d="M 38.5 146 L 39 151.5 L 38 151.5 L 38.5 146 Z " /><path fill="rgb(97,81,154)" stroke="rgb(97,81,154)" stroke-width="1" opacity="1" d="M 174.5 146 L 175 151.5 L 174 151.5 L 174.5 146 Z " /><path fill="rgb(97,81,154)" stroke="rgb(97,81,154)" stroke-width="1" opacity="1" d="M 61.5 156 L 62 159 L 80.5 159 L 81 160.5 L 82 165 L 85 165.5 L 84 166.5 L 84 181 L 81.5 182 L 64.5 182 L 62 181 L 62 160.5 L 61.5 156 Z " /><path fill="rgb(46,41,44)" stroke="rgb(46,41,44)" stroke-width="1" opacity="1" d="M 27 14 L 79.5 14 Q 80.8 14.3 80 20.5 L 79 26 L 73.5 27 L 36.5 27 L 35.5 26 L 28 26 Q 28.9 18.3 27 14 Z " /><path fill="rgb(46,41,44)" stroke="rgb(46,41,44)" stroke-width="1" opacity="1" d="M 134 14 L 187 15.5 Q 183.2 18.8 185 27 L 177.5 27 L 176.5 28 L 140.5 28 L 135 27 L 134 14 Z " /><path fill="rgb(46,41,44)" stroke="rgb(46,41,44)" stroke-width="1" opacity="1" d="M 55 84 L 81 84 L 81 135 L 56 135 L 56 118.5 L 55 117.5 L 55 84 Z " /><path fill="rgb(46,41,44)" stroke="rgb(46,41,44)" stroke-width="1" opacity="1" d="M 134 84 L 159 84 L 159 135 L 133 135 L 133 112.5 L 134 111.5 L 134 84 Z " /><path fill="rgb(46,41,44)" stroke="rgb(46,41,44)" stroke-width="1" opacity="1" d="M 30 139 L 37 139 L 37 154.5 L 38 155.5 L 38 172.5 L 37 173.5 L 37 182 L 15 183 Q 17.1 189.4 10 187 L 10 165.5 Q 10.1 164.4 15.5 165 L 16.5 166 L 28.5 166 L 30 164.5 L 30 139 Z " /><path fill="rgb(46,41,44)" stroke="rgb(46,41,44)" stroke-width="1" opacity="1" d="M 176 139 L 185 139 L 185 160.5 L 184 164 L 196.5 164 L 198 165.5 L 197 167.5 L 197 182 L 176 181 L 176 172.5 L 175 171.5 L 175 152.5 L 176 151.5 L 176 139 Z " /><path fill="rgb(141,138,142)" stroke="rgb(141,138,142)" stroke-width="1" opacity="1" d="M 26.5 0 L 27 26.5 L 26 26.5 L 26.5 0 Z " /><path fill="rgb(141,138,142)" stroke="rgb(141,138,142)" stroke-width="1" opacity="1" d="M 133.5 0 L 134 4.5 L 133 4.5 L 133.5 0 Z " /><path fill="rgb(141,138,142)" stroke="rgb(141,138,142)" stroke-width="1" opacity="1" d="M 80.5 5 L 81 26.5 L 80 26.5 L 80.5 5 Z " /><path fill="rgb(141,138,142)" stroke="rgb(141,138,142)" stroke-width="1" opacity="1" d="M 187.5 8 L 188 11.5 L 187 11.5 L 187.5 8 Z " /><path fill="rgb(141,138,142)" stroke="rgb(141,138,142)" stroke-width="1" opacity="1" d="M 0.5 66 L 1 69.5 L 0 69.5 L 0.5 66 Z " /><path fill="rgb(141,138,142)" stroke="rgb(141,138,142)" stroke-width="1" opacity="1" d="M 56 136 L 60 136 L 60 145.5 L 61 146.5 L 61 159 L 40.5 159 L 39 160.5 L 38.5 180 L 38 160.5 L 39 159.5 L 39 146.5 L 38 145.5 L 38 139 L 40.5 138 L 56 138 L 56 136 Z " /><path fill="rgb(141,138,142)" stroke="rgb(141,138,142)" stroke-width="1" opacity="1" d="M 153 136 L 159 136 L 159.5 138 L 172.5 138 L 175 139 L 175 145.5 L 174 146.5 L 174 159.5 L 175 160.5 L 175 179.5 L 174 179.5 L 174 160.5 L 172.5 159 L 153 159 L 153 178.5 L 152 178.5 L 153 136 Z " /><path fill="rgb(141,138,142)" stroke="rgb(141,138,142)" stroke-width="1" opacity="1" d="M 108.5 138 L 113 138.5 L 108 139 L 107.5 165 L 107 139.5 L 108.5 138 Z " /><path fill="rgb(141,138,142)" stroke="rgb(141,138,142)" stroke-width="1" opacity="1" d="M 124.5 138 Q 129.9 137.4 130 138.5 L 130 175.5 L 129 175.5 L 129 139.5 Q 129 138.5 124.5 139 L 124.5 138 Z " /><path fill="rgb(141,138,142)" stroke="rgb(141,138,142)" stroke-width="1" opacity="1" d="M 61.5 160 L 62 175.5 L 61 175.5 L 61.5 160 Z " /><path fill="rgb(141,138,142)" stroke="rgb(141,138,142)" stroke-width="1" opacity="1" d="M 85.5 165 L 88 165.5 L 85 166 L 84.5 173 L 84 166.5 L 85.5 165 Z " /><path fill="rgb(141,138,142)" stroke="rgb(141,138,142)" stroke-width="1" opacity="1" d="M 180.5 182 L 197 182.5 L 180.5 183 L 180.5 182 Z " /><path fill="rgb(141,138,142)" stroke="rgb(141,138,142)" stroke-width="1" opacity="1" d="M 16.5 183 L 32 183.5 L 16 184 L 15.5 187 L 15 184.5 L 16.5 183 Z " /><path fill="rgb(141,138,142)" stroke="rgb(141,138,142)" stroke-width="1" opacity="1" d="M 196.5 184 L 197 186.5 L 196 186.5 L 196.5 184 Z " /></svg>